PathFileType	4	(X/Y/Z)	T1_P1_Vision_Movement_2_0-687.trc
DataRate	CameraRate	NumFrames	NumMarkers	Units	OrigDataRate	OrigDataStartFrame	OrigNumFrames
60	60	7	27	m	60	85	687
Frame#	Time	RHip			RKnee			RAnkle			RBigToe			RSmallToe			RHeel			LHip			LKnee			LAnkle			LBigToe			LSmallToe			LHeel			Neck			Head			Nose			RShoulder			RElbow			RWrist			RThumb			RIndex			RPinky			LShoulder			LElbow			LWrist			LThumb			LIndex			LPinky		
		X1	Y1	Z1	X2	Y2	Z2	X3	Y3	Z3	X4	Y4	Z4	X5	Y5	Z5	X6	Y6	Z6	X7	Y7	Z7	X8	Y8	Z8	X9	Y9	Z9	X10	Y10	Z10	X11	Y11	Z11	X12	Y12	Z12	X13	Y13	Z13	X14	Y14	Z14	X15	Y15	Z15	X16	Y16	Z16	X17	Y17	Z17	X18	Y18	Z18	X19	Y19	Z19	X20	Y20	Z20	X21	Y21	Z21	X22	Y22	Z22	X23	Y23	Z23	X24	Y24	Z24	X25	Y25	Z25	X26	Y26	Z26	X27	Y27	Z27
86	1.4333333333333331	-118.91840772374128	3922.2542590345656	-648.8186235188605	240.0498095940535	4067.391175607422	-652.7575172544985	597.2871027238307	4263.300726130401	-688.3409759697361	687.8234484505889	4204.278324725366	-651.5179291825705	670.9138802378328	4144.304608711171	-690.8857599240158	635.687709295571	4313.499815587554	-698.066534176797	-146.0203993488664	4046.228074110981	-502.15640409166895	209.93633982940034	4168.058637562303	-498.17088498836046	551.5109895394679	4333.45134504079	-515.7114437010357	632.6706669459896	4220.692931615268	-401.55333507956135	607.7666722645163	4278.11131646105	-378.8210158218319	606.7226045148798	4374.921593402556	-538.7260228379341	-705.5587758262448	3792.5497115542034	-593.3224456859209	-946.3520151221594	3651.888369618905	-554.5350271370521	-799.3875289230634	3622.094236592577	-471.1980616960051	-595.5487728353094	3774.222028969416	-733.3820130552987	-348.4998028383592	3635.5278430024914	-700.411118893453	-543.5820890412241	3557.5180195845455	-578.3831630806483	-655.1289011333857	3592.397352563483	-568.9406715094935	-669.7206108650448	3565.6156279836077	-545.8023849572437	-602.5593940554918	3534.485504025144	-536.8439143331098	-653.7827733582873	3927.4161234345984	-487.4288236479698	-424.3958222661794	4081.243189078871	-426.4633308650615	-158.39190330028083	4093.8385185383236	-366.37814013328807	-38.9479782284812	4067.68066184178	-365.48146639289865	-0.8620950263325682	4143.831946091818	-370.1430639922849	-27.29976719118391	4153.368145482728	-340.80471082503544
87	1.45	-120.18431950664569	3915.432467142785	-646.6727745510602	239.73000762195068	4060.1408284995923	-649.2846270004487	598.3520567160285	4264.229621719847	-688.9662817419666	685.0685740270063	4203.962662326042	-652.0445167146484	668.6910555824384	4143.8346743623915	-691.2604381331635	636.5182880385609	4314.445052206882	-698.5901096339379	-146.04705272740085	4043.110167690221	-501.4084133776364	209.8025368754354	4164.8819072403085	-497.4478817746884	551.1552069118195	4332.704371215291	-515.5468949690338	629.9108433804793	4215.36126314351	-400.2767494542624	607.1165803728525	4277.975250571315	-378.7985179123878	606.8210601395685	4375.693654246898	-538.6967648489779	-705.2625737256486	3790.6073643147506	-591.8927259795796	-946.6779275072838	3652.6671778814016	-553.9913344290037	-798.6391024360872	3622.281140776306	-471.1715705712311	-595.5588114258566	3774.245774021353	-733.4192623169588	-348.5272330819576	3635.410123320608	-700.379028080632	-543.9333478358245	3557.170246599241	-578.1497138127813	-655.4245307934463	3590.9057253031624	-567.9159097264306	-670.3275836692703	3564.1904738534136	-544.8252654664977	-605.5725200465165	3529.637697579647	-532.5870018871248	-653.4500850825765	3927.685941746475	-487.40853088903884	-424.33059414766274	4081.25608447304	-426.46383244356184	-159.26500224329118	4093.495051794994	-366.43515126298405	-40.345120444175464	4070.896364342114	-366.2581567054986	-1.5790060423389047	4147.961856128646	-370.7547714742321	-27.469501041712178	4153.157226572764	-338.84555115667433
88	1.4666666666666666	-120.60184622074806	3910.0420368420796	-645.2404003285689	240.62948879155658	4059.679997885405	-649.1099733700925	599.4117324103261	4265.069000777425	-689.374219718745	683.0978454751498	4201.944124753208	-651.9353242705021	668.8037253254902	4149.233565898881	-695.6910798416288	637.6570594596719	4315.211856269189	-698.865093323533	-145.9395548513952	4042.356502218559	-501.2018605540063	209.76827378611506	4164.088843051349	-497.22200809994524	550.4568765882742	4332.052515850869	-515.4203186801255	630.2159406275036	4215.068750367091	-400.1797560359219	607.5269552499662	4277.893036732055	-378.7142155826171	607.1992275349266	4378.941117545982	-539.1897003809324	-705.1744655308742	3790.060743185842	-591.5339573407769	-946.2193966265941	3650.688104808729	-551.6120860886591	-797.4834733352684	3622.5566905848145	-471.10151490399915	-595.5487009347511	3774.2580331811855	-733.4465400226363	-348.51905770988645	3635.315166156627	-700.3131327663983	-545.0942636109811	3556.309410743407	-577.7026838444151	-657.2816456713268	3589.6408617534858	-567.4980361801346	-672.1970119989955	3563.5913378812156	-544.901486934457	-609.7160500780292	3528.646794962963	-533.7098257583826	-653.0828268902313	3927.037382995443	-487.1721668481829	-424.1437111334943	4081.3109881244827	-426.4717073626768	-159.6981382441951	4093.3592685464214	-366.4265615394697	-41.43256323484505	4066.403542273566	-365.6138734136267	-1.1302081617988533	4143.759583307898	-370.03868189557477	-27.185572981891838	4153.182225967186	-337.3536126939247
89	1.4833333333333334	-120.006521383135	3907.042073953953	-645.9057231741327	241.83349312849595	4065.4155510698984	-653.0166763920436	599.9353841588231	4265.356010338736	-689.3618776482739	682.0270179655558	4197.447348833086	-650.8768085617298	670.1992621615407	4155.481327411316	-700.2781226571632	638.5404970626571	4315.416209935385	-698.7723584294436	-145.87009072240875	4042.6313608425016	-501.25678306691407	209.76025339779497	4164.356724734055	-497.24272516283577	549.4793931629979	4331.817804320609	-515.5995853126037	632.8589325600923	4220.947052786234	-401.5596949307927	608.3234474258048	4277.904967237767	-378.65315531839406	607.6462780489308	4384.110096178858	-540.3532520042531	-705.1843924782969	3790.093660106834	-591.5844336108122	-945.5966416595882	3648.1304590060627	-549.7139740715195	-797.3543817774226	3622.5516501697102	-471.0767997808384	-595.5350413867725	3774.252845836274	-733.465835077605	-348.5290519049051	3635.222907580754	-700.2233480336256	-546.7508994925033	3555.121668414038	-577.1289371849704	-659.8654788991507	3589.5845006474196	-568.1252954210927	-674.5169239232214	3562.7460779145977	-544.718427044327	-613.3282276965567	3530.644839996851	-538.1268924124745	-653.2852713326367	3924.103490648551	-486.52679435863456	-423.9271827066477	4081.3600712907873	-426.45950807432433	-159.17545194084053	4093.678088046869	-366.3369876091125	-42.34751228485169	4060.152042431241	-364.56256018259114	-0.055010141918903854	4134.693892645121	-368.51155382998127	-26.720834429327965	4153.418765266963	-336.67133585447937
90	1.5	-119.30240466430607	3907.2568908630647	-649.4761080249525	242.50195281924638	4073.6426242495327	-658.9209388545123	600.0777164985584	4265.245655784539	-689.3150467032913	681.5914679956534	4189.763687214095	-648.7459728939059	672.2374784788971	4158.554584999414	-701.8828416931203	639.2078162224121	4315.348779179123	-698.4891736222621	-145.85992401373082	4042.9964047596395	-501.3726940531292	209.7169809062384	4164.7249721921335	-497.36331258163966	548.6260464164977	4331.770789993291	-516.4653950892771	635.1142760462998	4227.956905648663	-403.18355868541585	608.4385097349993	4277.989610160062	-378.68688705378946	607.5043056129169	4386.929430581307	-541.768614895702	-705.2029615137013	3790.128999060251	-591.5782562309569	-945.6047415106875	3648.2746763155706	-550.303898300092	-798.4175854590829	3622.2356153367946	-471.11240556429857	-595.5349770616696	3774.222847190693	-733.4727071072246	-348.559223377654	3635.1076815047645	-700.1260296847456	-548.1160501942323	3554.1237053841396	-576.6407429983302	-661.4187051275139	3589.749977586366	-568.1559564410969	-675.803834126613	3561.363232045444	-543.3307327523739	-615.0426022560881	3530.8380202356143	-538.724944594429	-653.6754035420566	3919.5683038834313	-485.6023562924326	-423.90233280803534	4081.366480685425	-426.43972851274697	-158.16771412123094	4094.2111370267367	-366.2237217693725	-42.868585562038774	4060.0033313014765	-364.4675813577147	0.7591299433889284	4127.030093940217	-367.15253373782076	-26.847199131208367	4153.271609485773	-336.19946057618955
91	1.5166666666666666	-119.29673318143503	3909.664081436738	-654.1142841968482	242.25143697369518	4079.8428537081677	-663.5793707848596	600.2760996070126	4265.308426764525	-690.0359926545276	681.9450015122161	4182.484347695313	-646.541957116081	673.9162291820857	4157.49530739641	-700.2168755224086	639.5345658224779	4315.281656333812	-698.2037082386787	-145.8766823662158	4043.168632020179	-501.4729977391082	209.6456381477964	4164.921849069054	-497.68824386390355	548.280157277957	4331.544531870065	-518.1806251670685	635.3712605172144	4231.060060890993	-403.95091699241726	607.7991363963481	4278.084432863383	-378.79761424276376	606.576986144023	4384.374365089186	-542.9261769614382	-705.2259213247091	3790.1744938966262	-591.5345178192686	-946.4989392634087	3652.23908352492	-553.6659520734378	-799.6363159923009	3621.905682879128	-471.15994487905607	-595.5564513964507	3774.1597200206356	-733.4561439721926	-348.60125089082186	3634.9489992670465	-700.0409090890471	-548.7675028244083	3553.628351527849	-576.3773869535105	-660.984033045847	3588.5641453054636	-565.7711851522081	-675.3353559509824	3559.6089148530527	-540.6146027959055	-614.1535681918781	3528.368581868635	-534.06143695005	-653.8883276195954	3917.2096937271813	-485.13609633810904	-424.50454818038133	4081.2832984103843	-426.4761415356187	-157.4706107508162	4094.5489052597704	-366.1352822569978	-42.389404324513265	4065.771948814749	-365.2657760037717	0.8244615148533285	4123.491570777283	-366.4327917383191	-27.67411312231794	4152.49079363577	-335.5995528883591
92	1.5333333333333334	-119.59242469278465	3912.102199734884	-656.0438206165056	241.45114101899236	4081.835868163196	-665.2403481295387	600.5484661478204	4265.693248549869	-691.2175372870945	682.7900344100876	4180.183498601659	-645.5776690456612	674.1216456179518	4153.82950493572	-697.0923598588937	639.171290083105	4315.093230087896	-697.959796795426	-145.87673716668257	4043.1848877892608	-501.530989832302	209.63113076790856	4164.937284814332	-498.416925411213	548.3951111880003	4331.172748172035	-520.1302209627362	634.2796540297721	4229.357445378979	-404.01678119062825	607.2358942341126	4278.164558669947	-378.9148156667846	605.7868266255318	4379.255511726783	-543.448348852452	-705.3322219208702	3790.788594823552	-591.9276516806491	-947.8280750711401	3658.098582245311	-558.4181614338066	-800.264327576056	3621.794104195099	-471.2006430944339	-595.5935092277994	3774.0829104293693	-733.4239137772433	-348.6434750377399	3634.7885484555195	-699.9966687503002	-548.7061085981609	3553.6407441752112	-576.3700182973446	-659.2885933105421	3586.1266310098554	-561.6294191134797	-673.8461081751454	3558.213651009393	-538.0331644169512	-611.3678182579912	3529.913465416596	-532.759028671315	-654.416235896334	3919.4229278722264	-485.6316383293363	-426.032101668878	4081.099814010422	-426.6210660223582	-157.58398439495286	4094.486057788359	-366.03394646282163	-41.140306333964936	4070.244710281171	-365.73628116039885	-0.4640293060035314	4122.617855412535	-366.13466995537385	-28.660672264566614	4151.552026015348	-335.09979261607964
